<svg id="Layer_5" enable-background="new 0 0 64 64" height="512" viewBox="0 0 64 64" width="512" xmlns="http://www.w3.org/2000/svg" xmlns:xlink="http://www.w3.org/1999/xlink"><linearGradient id="SVGID_1_" gradientUnits="userSpaceOnUse" x1="32" x2="32" y1="63" y2="1"><stop offset="0" stop-color="#9f2fff"/><stop offset="1" stop-color="#0bb1d3"/></linearGradient><path d="m32 1c-17.094 0-31 13.906-31 31s13.906 31 31 31c5.143 0 10.203-1.299 14.711-3.735 1.661 2.289 4.355 3.735 7.289 3.735 4.963 0 9-4.037 9-9 0-2.934-1.446-5.628-3.735-7.289 2.436-4.508 3.735-9.568 3.735-14.711 0-17.094-13.906-31-31-31zm29 53c0 1.002-.215 1.953-.596 2.816l-.026-.064c-.427-1.064-1.443-1.752-2.589-1.752-1.538 0-2.789 1.251-2.789 2.789v.211h2v-.211c0-.435.354-.789.789-.789.324 0 .612.195.732.495l.533 1.334c-1.275 1.335-3.067 2.171-5.054 2.171-3.111 0-5.878-2.092-6.729-5.088l-.078-.275-.213-.192c-1.258-1.139-1.98-2.759-1.98-4.445 0-3.309 2.691-6 6-6 1.686 0 3.306.722 4.444 1.98l.192.213.275.078c2.997.851 5.089 3.618 5.089 6.729zm-23.239-44.289.411-1.938c1.053.268 2.077.609 3.072 1.006l-.803 1.802 1.826.814.803-1.803c.969.481 1.904 1.02 2.797 1.618l-1.158 1.594 1.619 1.176 1.153-1.588c.846.669 1.647 1.39 2.4 2.161l-1.458 1.314 1.338 1.486 1.462-1.317c.688.827 1.32 1.702 1.898 2.614l-1.703.983 1 1.732 1.707-.986c.77 1.461 1.398 3.007 1.87 4.619h-2.18c-1.166 0-2.229-.678-2.709-1.726-2.913-6.37-8.766-10.853-15.656-11.992-1.397-.228-2.45-1.516-2.45-2.994v-1.261c1.091.043 2.163.158 3.214.337l-.41 1.933zm-2.637 3.544c6.232 1.031 11.527 5.088 14.164 10.852.804 1.757 2.581 2.893 4.527 2.893h2.682c.329 1.616.503 3.288.503 5 0 4.058-1.005 8.057-2.89 11.635-.671-.285-1.382-.471-2.11-.564v-6.071-1-1.464c0-3.159-1.525-6.155-4.081-8.013l-4.988-3.628c-1.704-1.24-3.72-1.895-5.827-1.895-1.529 0-3.062.361-4.432 1.046l-.731.366c-.288-1.926-1.936-3.412-3.941-3.412h-7c-1.474 0-2.75.81-3.444 2h-2.556c-2.206 0-4 1.794-4 4s1.794 4 4 4h1v1.222c0 4.84 3.937 8.778 8.778 8.778 1.586 0 3.157-.189 4.695-.545.123.462.271.914.442 1.361-.68.587-1.347 1.202-1.996 1.85l-.799.799c-.722.723-1.12 1.684-1.12 2.707 0 1.205.571 2.268 1.444 2.97l-.323.323c-.723.723-1.121 1.684-1.121 2.707 0 2.11 1.718 3.828 3.828 3.828 1.022 0 1.984-.398 2.707-1.121l1.394-1.394c1.436-1.436 3.047-2.687 4.78-3.744 1.377.637 2.856 1.044 4.371 1.192-.047.35-.08.705-.08 1.067 0 1.077.221 2.134.635 3.11-3.578 1.885-7.577 2.89-11.635 2.89-13.785 0-25-11.215-25-25 0-13.45 10.677-24.447 24-24.975v1.261c0 2.485 1.734 4.575 4.124 4.969zm8.478 34.71c-2.324-.16-4.573-1.023-6.397-2.481l-1.127-.904c2.709-2.158 5.836-3.762 9.189-4.677l-.527-1.93c-4.614 1.26-8.842 3.715-12.225 7.098l-1.394 1.394c-.34.34-.811.535-1.293.535-1.008 0-1.828-.82-1.828-1.828 0-.481.195-.953.535-1.293l.799-.799c5.335-5.335 11.819-8.476 18.666-9.08 1.103 0 2 .897 2 2v1 6.069c-2.901.365-5.322 2.282-6.398 4.896zm-15.067 1.914.799-.799c.04-.04.08-.078.12-.118.125.013.246.038.374.038 1.022 0 1.984-.398 2.707-1.121l1.394-1.394c.198-.198.408-.383.612-.574l1.414 1.134c.253.202.515.39.781.572-1.516 1.009-2.932 2.164-4.222 3.453l-1.394 1.394c-.339.341-.81.536-1.292.536-1.008 0-1.828-.82-1.828-1.828 0-.482.195-.953.535-1.293zm-13.535-22.879c-1.103 0-2-.897-2-2s.897-2 2-2h2c0 2.206 1.794 4 4 4h1.056c.499 4.494 4.319 8 8.944 8h.784c1.63 0 3.231-.443 4.631-1.282l3.1-1.86-1.029-1.715-3.099 1.86c-1.089.652-2.335.997-3.603.997h-.784c-3.859 0-7-3.141-7-7v-1h-3c-1.103 0-2-.897-2-2s.897-2 2-2h7c1.103 0 2 .897 2 2v.541c0 1.9 1.353 3.55 3.216 3.922l2.588.518.393-1.961-2.588-.518c-.595-.119-1.084-.5-1.361-1.007l1.319-.66c1.092-.546 2.316-.835 3.537-.835 1.683 0 3.29.523 4.651 1.513l4.988 3.628c1.451 1.056 2.475 2.574 2.952 4.269-.536-.252-1.132-.406-1.775-.406-.002 0-.005 0-.007 0-4.849.425-9.483 2.01-13.698 4.64l-.531-1.592-2.943.981c-1.926.642-3.932.967-5.963.967-3.737 0-6.778-3.041-6.778-6.778v-3.222zm16.397 10.922 1.751-.584c-.541.367-1.075.75-1.6 1.152-.06-.187-.1-.379-.151-.568zm25.334 7.508c-.279-.287-.582-.542-.897-.782 2.065-3.885 3.166-8.234 3.166-12.648 0-14.888-12.112-27-27-27s-27 12.112-27 27 12.112 27 27 27c4.414 0 8.763-1.101 12.648-3.165.24.315.495.618.782.897.086.271.189.534.299.792-4.208 2.267-8.929 3.476-13.729 3.476-15.99 0-29-13.01-29-29s13.01-29 29-29 29 13.01 29 29c0 4.8-1.209 9.521-3.477 13.729-.258-.111-.521-.213-.792-.299zm-45.731-13.43c0 .638.029 1.28.086 1.91l-1.992.18c-.063-.69-.094-1.393-.094-2.09zm-1.621 4.182 1.967-.363c.119.647.269 1.29.444 1.909l-1.924.545c-.192-.679-.356-1.382-.487-2.091zm1.189 4.182 1.863-.728c1.872 4.794 5.432 8.727 10.023 11.074l-.91 1.781c-5.026-2.569-8.925-6.877-10.976-12.127zm40.432 9.636c-.552 0-1 .448-1 1h-2c0-1.654 1.346-3 3-3zm6 2c0 .552-.448 1-1 1s-1-.448-1-1 .448-1 1-1 1 .448 1 1zm-4 4c0 .552-.448 1-1 1s-1-.448-1-1 .448-1 1-1 1 .448 1 1zm-29.095-45.535.703 1.873c-.591.221-1.18.474-1.751.751l-.873-1.799c.627-.305 1.274-.582 1.921-.825zm4.03-1.108.352 1.969c-.625.112-1.252.254-1.86.421l-.531-1.928c.666-.183 1.353-.34 2.039-.462zm-7.788 2.928 1.031 1.713c-.54.326-1.074.682-1.587 1.058l-1.184-1.611c.563-.413 1.148-.803 1.74-1.16z" fill="url(#SVGID_1_)"/></svg>