<svg height="512pt" viewBox="0 0 512.00476 512" width="512pt" xmlns="http://www.w3.org/2000/svg"><path d="m500.910156 194.648438c-2.300781 36.585937-12.921875 72.164062-31.058594 104.019531l-145.582031 68.269531 1.28125-11.691406 18.859375-166.484375c22.195313-34.890625 34.984375-74.929688 37.121094-116.226563.085938-1.792968.167969-3.667968.253906-5.546875.257813-7.167969.171875-14.25-.253906-21.246093-.902344-12.878907 5.535156-25.160157 16.640625-31.746094l1.449219-.851563c1.671875-.988281 3.445312-1.789062 5.289062-2.390625 13.101563-4.984375 27.917969-1.269531 37.121094 9.300782 41.746094 48.234374 62.890625 110.929687 58.878906 174.59375zm0 0" fill="#e3e7f2"/><path d="m477.359375 194.648438c-2.300781 36.585937-12.925781 72.164062-31.0625 104.019531l-120.746094 56.578125 18.859375-166.484375c22.195313-34.890625 34.984375-74.929688 37.121094-116.226563.085938-1.792968.167969-3.667968.253906-5.546875.257813-7.167969.171875-14.25-.253906-21.246093-.902344-12.878907 5.535156-25.160157 16.640625-31.746094l1.449219-.851563c1.671875-.988281 3.445312-1.789062 5.289062-2.390625 5.261719 1.859375 9.941406 5.066406 13.570313 9.300782 41.746093 48.234374 62.890625 110.929687 58.878906 174.59375zm0 0" fill="#e3e7f2"/><path d="m469.765625 59.480469-.425781.253906-87.980469 16.042969c.085937-1.109375.085937-2.132813.171875-3.242188-.015625-.34375.011719-.6875.085938-1.023437 0-1.449219.082031-2.988281.167968-4.523438.257813-7.167969.171875-14.25-.253906-21.246093-.902344-12.878907 5.535156-25.160157 16.640625-31.746094l1.449219-.851563c1.773437-1.007812 3.628906-1.867187 5.546875-2.5625 13.0625-4.792969 27.730469-1.023437 36.863281 9.472657 9.519531 10.992187 18.027344 22.816406 25.429688 35.328124.769531 1.367188 1.621093 2.730469 2.304687 4.097657zm0 0" fill="#a4c2f7"/><path d="m446.808594 59.480469-.425782.253906-64.765624 11.777344c0-1.449219.082031-2.988281.167968-4.523438.257813-7.167969.171875-14.25-.253906-21.246093-.902344-12.878907 5.535156-25.160157 16.640625-31.746094l1.449219-.851563c1.773437-1.007812 3.628906-1.867187 5.546875-2.5625 5.371093 1.914063 10.160156 5.175781 13.910156 9.472657 9.515625 10.992187 18.027344 22.816406 25.429687 35.328124.765626 1.367188 1.621094 2.730469 2.300782 4.097657zm0 0" fill="#e3e7f2"/><path d="m503.472656 298.667969c0 3.160156-.085937 6.230469-.257812 9.300781-.085938 3.5-.339844 6.914062-.683594 10.328125-.082031 1.023437-.167969 2.046875-.339844 3.070313-.257812 2.816406-.683594 5.632812-1.109375 8.449218-.511719 3.414063-1.109375 6.742188-1.792969 10.070313-.679687 3.328125-1.449218 6.65625-2.304687 9.898437v.085938c-23.386719 90.402344-104.933594 153.5625-198.3125 153.597656h-85.332031c-93.382813-.035156-174.929688-63.195312-198.316406-153.597656v-.085938c-.851563-3.242187-1.621094-6.570312-2.304688-9.898437s-1.28125-6.65625-1.792969-10.070313c-.425781-2.816406-.851562-5.632812-1.109375-8.449218-.167968-1.023438-.253906-2.046876-.339844-3.070313-.339843-3.414063-.597656-6.828125-.683593-10.328125-.167969-3.070312-.253907-6.140625-.253907-9.300781zm0 0" fill="#a4c2f7"/><path d="m162.136719 349.871094-27.730469-13.230469-80.042969-37.972656-28.84375-76.628907-5.804687-15.445312c-8.46875-22.625.035156-48.09375 20.398437-61.097656 5.65625-3.703125 12.019531-6.199219 18.6875-7.339844l13.90625-2.472656.941407-.171875 14.847656-2.558594c15.003906-2.667969 30.417968 1.488281 42.050781 11.335937 11.628906 9.847657 18.269531 24.367188 18.109375 39.605469l-.34375 26.882813v.082031zm0 0" fill="#a4c2f7"/><path d="m134.40625 336.640625-80.042969-37.972656-28.84375-76.628907-3.585937-9.640624-2.21875-5.804688c-1.265625-3.425781-2.179688-6.96875-2.730469-10.582031-2.890625-19.917969 6.15625-39.6875 23.128906-50.515625l6.996094-1.28125.9375-.167969 14.847656-2.5625c15.007813-2.667969 30.421875 1.488281 42.050781 11.335937 11.628907 9.851563 18.269532 24.367188 18.109376 39.609376l-.339844 26.878906v.085937zm0 0" fill="#e3e7f2"/><path d="m27.636719 36.859375 46.019531 98.6875c-21.851562-3.355469-41.191406-15.96875-53.074219-34.609375-11.878906-18.640625-15.148437-41.5-8.964843-62.722656.921874-3.488282 3.9375-6.019532 7.53125-6.324219s6.992187 1.683594 8.488281 4.96875zm0 0" fill="#e3e7f2"/><path d="m82.242188 27.230469-9.5 108.453125c19.375-10.625 33.226562-29.085938 38.015624-50.65625 4.792969-21.570313.050782-44.160156-13.003906-61.984375-2.058594-2.960938-5.753906-4.308594-9.230468-3.367188-3.480469.9375-5.996094 3.964844-6.28125 7.554688zm0 0" fill="#e3e7f2"/><path d="m110.9375 401.070312h-34.132812c-4.710938 0-8.535157-3.820312-8.535157-8.535156 0-4.710937 3.824219-8.53125 8.535157-8.53125h34.132812c4.714844 0 8.535156 3.820313 8.535156 8.53125 0 4.714844-3.820312 8.535156-8.535156 8.535156zm0 0" fill="#955ba5"/><path d="m409.605469 401.070312h-264.535157c-4.710937 0-8.53125-3.820312-8.53125-8.535156 0-4.710937 3.820313-8.53125 8.53125-8.53125h264.535157c4.710937 0 8.53125 3.820313 8.53125 8.53125 0 4.714844-3.820313 8.535156-8.53125 8.535156zm0 0" fill="#955ba5"/><path d="m503.472656 298.667969c0 3.160156-.085937 6.230469-.257812 9.300781-.085938 3.5-.339844 6.914062-.683594 10.328125-.082031 1.023437-.167969 2.046875-.339844 3.070313-.257812 2.816406-.683594 5.632812-1.109375 8.449218-.511719 3.414063-1.109375 6.742188-1.792969 10.070313-.679687 3.328125-1.449218 6.65625-2.304687 9.898437v.085938h-481.960937v-.085938c-.851563-3.242187-1.621094-6.570312-2.304688-9.898437s-1.28125-6.65625-1.792969-10.070313c-.425781-2.816406-.851562-5.632812-1.109375-8.449218-.167968-1.023438-.253906-2.046876-.339844-3.070313-.339843-3.414063-.597656-6.828125-.683593-10.328125-.167969-3.070312-.253907-6.140625-.253907-9.300781zm0 0" fill="#a4c2f7"/><path d="m477.871094 298.667969c0 3.160156-.085938 6.230469-.253906 9.300781-.085938 3.5-.34375 6.914062-.683594 10.328125-.085938 1.023437-.171875 2.046875-.34375 3.070313-.253906 2.816406-.679688 5.632812-1.109375 8.449218-.511719 3.414063-1.109375 6.742188-1.789063 10.070313-.683594 3.328125-1.453125 6.65625-2.304687 9.898437v.085938c-23.390625 90.402344-104.9375 153.5625-198.316407 153.597656h-59.730468c-93.382813-.035156-174.929688-63.195312-198.316406-153.597656v-.085938c-.851563-3.242187-1.621094-6.570312-2.304688-9.898437s-1.28125-6.65625-1.792969-10.070313c-.425781-2.816406-.851562-5.632812-1.109375-8.449218-.167968-1.023438-.253906-2.046876-.339844-3.070313-.339843-3.414063-.597656-6.828125-.683593-10.328125-.167969-3.070312-.253907-6.140625-.253907-9.300781zm0 0" fill="#e3e7f2"/><path d="m477.871094 298.667969c0 3.160156-.085938 6.230469-.253906 9.300781-.085938 3.5-.34375 6.914062-.683594 10.328125-.085938 1.023437-.171875 2.046875-.34375 3.070313-.253906 2.816406-.679688 5.632812-1.109375 8.449218-.511719 3.414063-1.109375 6.742188-1.789063 10.070313-.683594 3.328125-1.453125 6.65625-2.304687 9.898437v.085938h-456.363281v-.085938c-.851563-3.242187-1.621094-6.570312-2.304688-9.898437s-1.28125-6.65625-1.792969-10.070313c-.425781-2.816406-.851562-5.632812-1.109375-8.449218-.167968-1.023438-.253906-2.046876-.339844-3.070313-.339843-3.414063-.597656-6.828125-.683593-10.328125-.167969-3.070312-.253907-6.140625-.253907-9.300781zm0 0" fill="#e3e7f2"/><path d="m384.003906 276.140625c.003906 7.566406-.742187 15.109375-2.21875 22.527344h-251.5625c-1.476562-7.417969-2.21875-14.960938-2.21875-22.527344.332032-40.164063 20.898438-77.453125 54.699219-99.15625 7.289063-4.753906 15.589844-7.734375 24.234375-8.703125 4.363281-.554688 8.777344-.554688 13.140625 0h71.851563c13.09375-1.585938 26.328124 1.496094 37.375 8.703125 33.800781 21.703125 54.371093 58.992187 54.699218 99.15625zm0 0" fill="#a4c2f7"/><path d="m349.871094 276.140625c0 7.566406-.742188 15.109375-2.21875 22.527344h-217.429688c-1.476562-7.417969-2.21875-14.960938-2.21875-22.527344.332032-40.164063 20.898438-77.453125 54.699219-99.15625 7.289063-4.753906 15.589844-7.734375 24.234375-8.703125h50.859375c4.363281-.554688 8.777344-.554688 13.140625 0 8.648438.96875 16.945312 3.949219 24.234375 8.703125 33.800781 21.703125 54.371094 58.992187 54.699219 99.15625zm0 0" fill="#e3e7f2"/><path d="m256.003906 146.289062c21.335938-21.949218 71.109375 0 71.109375 0-15.246093 1.113282-29.945312 6.152344-42.667969 14.625 0 0 35.558594 29.261719 42.667969 58.515626-.300781-1.246094-7.40625-3.601563-8.660156-4.140626-3.085937-1.347656-6.261719-2.488281-9.5-3.414062-6.304687-2.027344-13.042969-2.292969-19.488281-.773438-18.203125 4.957032-29.269532 27.664063-33.460938 44.902344-4.1875-17.238281-15.257812-39.945312-33.457031-44.945312-6.449219-1.519532-13.1875-1.253906-19.492187.777344-3.238282.921874-6.410157 2.0625-9.496094 3.410156-1.253906.539062-8.363282 2.894531-8.660156 4.140625 7.105468-29.253907 42.664062-58.515625 42.664062-58.515625-12.722656-8.472656-27.421875-13.511719-42.664062-14.625 0 0 49.773437-21.90625 71.105468.042968zm0 0" fill="#e3e7f2"/><g fill="#fff"><path d="m72.777344 135.359375v.316406h-.070313l-13.90625 2.472657c-6.667969 1.136718-13.03125 3.636718-18.6875 7.339843-2.289062 1.46875-4.457031 3.121094-6.480469 4.941407-.542968.492187-1.03125 1.039062-1.558593 1.558593-1.417969 1.34375-2.753907 2.769531-4.003907 4.269531-.546874.671876-1.050781 1.371094-1.5625 2.082032-1.085937 1.472656-2.09375 3-3.019531 4.582031-.453125.777344-.851562 1.550781-1.296875 2.355469-.832031 1.640625-1.578125 3.324218-2.234375 5.042968-.308593.851563-.640625 1.59375-.90625 2.414063-.628906 1.957031-1.136719 3.953125-1.519531 5.972656-.128906.648438-.324219 1.273438-.425781 1.921875-.4375 2.679688-.65625 5.390625-.65625 8.105469 0 .570313.109375 1.144531.128906 1.707031.035156 1.855469.171875 3.710938.40625 5.554688.054687.339844.15625.691406.214844 1.042968.09375.585938.238281 1.175782.359375 1.765626.527344 2.640624 1.25 5.238281 2.15625 7.773437l5.804687 15.445313 28.84375 76.644531h25.597657l-28.839844-76.628907-5.804688-15.445312c-.90625-2.535156-1.628906-5.132812-2.160156-7.773438-.117188-.589843-.261719-1.175781-.355469-1.765624-.0625-.351563-.164062-.699219-.214843-1.042969-.238282-1.839844-.375-3.695313-.410157-5.554688 0-.578125-.128906-1.152343-.128906-1.707031-.011719-2.71875.195313-5.4375.625-8.121094.101563-.648437.296875-1.273437.425781-1.921875.382813-2.019531.890625-4.015625 1.519532-5.972656.265624-.851563.597656-1.605469.90625-2.414063.65625-1.71875 1.402343-3.402343 2.234374-5.042968.410157-.804688.851563-1.578125 1.296876-2.355469.925781-1.582031 1.933593-3.109375 3.019531-4.582031.511719-.710938 1.015625-1.410156 1.5625-2.082032 1.25-1.5 2.585937-2.925781 4.003906-4.269531.527344-.519531 1.015625-1.066406 1.558594-1.558593 2.035156-1.820313 4.210937-3.46875 6.511719-4.933594 5.660156-3.703125 12.023437-6.199219 18.6875-7.339844l13.910156-2.472656h.042968v-.316406c-3.375-.578126-6.707031-1.375-9.976562-2.390626l-14.753906 2.5625-.128906-.28125c2.613281-1.472656 5.140624-3.09375 7.5625-4.855468-2.574219-1.089844-5.089844-2.316406-7.535157-3.671875l-.632812 7.226562-5.042969-10.871093c-23.445312-15.789063-36.25-43.242188-33.277344-71.355469l-6.929687-14.871094c-1.496094-3.285156-4.894531-5.273437-8.488281-4.96875s-6.609376 2.835937-7.53125 6.324219c-6.144532 21.066406-2.96875 43.761718 8.722656 62.332031 11.695312 18.570313 30.78125 31.246094 52.4375 34.8125zm.785156.167969-.742188.136718.347657-.21875c.128906.015626.222656.058594.394531.082032zm0 0"/><path d="m99.160156 135.527344c-.132812 0-.261718-.066406-.390625-.082032l-.351562.21875zm0 0"/><path d="m40.625 349.871094v-.085938c-.855469-3.242187-1.621094-6.570312-2.304688-9.898437-.683593-3.328125-1.28125-6.65625-1.792968-10.070313-.425782-2.816406-.851563-5.632812-1.109375-8.449218-.171875-1.023438-.257813-2.046876-.339844-3.070313-.34375-3.414063-.597656-6.828125-.683594-10.328125-.171875-3.070312-.257812-6.140625-.257812-9.300781h-25.597657c0 3.160156.085938 6.230469.253907 9.300781.085937 3.5.34375 6.914062.683593 10.328125.085938 1.023437.171876 2.046875.339844 3.070313.257813 2.816406.683594 5.632812 1.109375 8.449218.511719 3.414063 1.109375 6.742188 1.792969 10.070313s1.453125 6.65625 2.304688 9.898437v.085938c23.386718 90.402344 104.933593 153.5625 198.316406 153.597656h25.597656c-93.378906-.035156-174.925781-63.195312-198.3125-153.597656zm0 0"/><path d="m98.648438 132.21875c-.3125 0-.628907 0-.945313 0l.800781 1.707031zm0 0"/><path d="m213.339844 512.003906c-76.832032-.234375-147.65625-41.585937-185.628906-108.375-17.976563-32.074218-27.511719-68.191406-27.70703175-104.960937h17.06640575c.199219 33.8125 8.972657 67.023437 25.5 96.523437 34.925782 61.453125 100.082032 99.511719 170.769532 99.746094zm0 0"/></g><path d="m151.898438 485.695312c-2.445313-2.269531-6.023438-2.824218-9.039063-1.402343-.996094.511719-1.894531 1.195312-2.652344 2.023437-.78125.804688-1.398437 1.753906-1.816406 2.792969-.808594 2.105469-.746094 4.445313.167969 6.507813 1.066406 2.070312 2.867187 3.671874 5.046875 4.488281 2.167969.78125 4.554687.710937 6.671875-.203125l1.390625-.921875c.453125-.367188.859375-.796875 1.203125-1.269531.378906-.398438.699218-.851563.945312-1.339844.257813-.519532.476563-1.050782.660156-1.597656.957032-3.265626-.039062-6.792969-2.5625-9.078126zm0 0" fill="#428dff"/><path d="m503.472656 290.136719h-19.457031c44.59375-90.671875 30.597656-199.230469-35.53125-275.628907-13.351563-15.273437-35.660156-18.933593-53.191406-8.71875l-1.398438.851563c-13.921875 8.164063-22.011719 23.515625-20.878906 39.613281.40625 6.714844.492187 13.585938.246094 20.34375l-.257813 5.511719c-1.933594 36.507813-12.496094 72.039063-30.8125 103.679687-2.652344-2.054687-5.359375-4.054687-8.191406-5.972656-8.441406-5.507812-18.058594-8.960937-28.074219-10.078125 6.710938-2.902343 13.90625-4.511719 21.210938-4.746093 4.035156.011718 7.523437-2.796876 8.371093-6.738282.847657-3.941406-1.179687-7.941406-4.863281-9.585937-2.097656-.9375-47.785156-21.050781-74.613281-3.171875-26.8125-17.921875-72.535156 2.234375-74.617188 3.171875-3.679687 1.644531-5.707031 5.644531-4.859374 9.585937.84375 3.941406 4.335937 6.75 8.367187 6.738282 7.316406.238281 14.519531 1.851562 21.238281 4.753906-10.046875 1.117187-19.691406 4.574218-28.160156 10.09375-7.496094 4.984375-14.476562 10.699218-20.835938 17.066406v-2.941406c.3125-31.925782-24.535156-58.457032-56.414062-60.230469 14.964844-17.546875 22.1875-40.40625 20.011719-63.367187-2.171875-22.960938-13.554688-44.0625-31.550781-58.488282-2.453126-1.9687498-5.796876-2.425781-8.691407-1.191406-2.894531 1.238281-4.875 3.96875-5.148437 7.105469l-8.191406 93.671875-39.742188-85.25c-1.324219-2.855469-4.113281-4.75-7.257812-4.929688-3.140626-.179687-6.128907 1.390625-7.765626 4.078125-12.019531 19.753907-15.492187 43.542969-9.625 65.910157 5.867188 22.367187 20.570313 41.390624 40.734376 52.703124-28.972657 12.773438-42.925782 45.953126-31.785157 75.597657l30.292969 80.5625h-33.492188c-4.714843 0-8.53515575 3.820312-8.53515575 8.53125.21484375 17.242187 2.39453175 34.402343 6.49609375 51.148437v.054688c.003906 1.261718.296875 2.507812.851562 3.640625 4.558594 17.527343 11.402344 34.378906 20.359376 50.117187 18.121093 31.980469 44.207031 58.730469 75.71875 77.652344l7.601562 4.609375c2.050781 1.082031 4.445312 1.296875 6.65625.597656 2.207031-.699219 4.042969-2.253906 5.09375-4.316406 2.066406-4.09375.488281-9.089844-3.558594-11.25l-6.980468-4.265625c-29-17.410156-53.003907-42.03125-69.671876-71.464844-6.628906-11.65625-11.984374-23.988281-15.976562-36.789062h458.957031c-26.058593 81.246094-101.554687 136.40625-186.878906 136.535156h-85.332031l-16.34375-.855469c-5.4375-.410156-10.851563-1.109375-16.210938-2.097656-4.585937-.515625-8.824218 2.507813-9.824218 7.011719-.484376 2.246094 0 4.589844 1.332031 6.460937 1.335937 1.871094 3.394531 3.089844 5.675781 3.363281 5.824219 1.066407 11.703125 1.824219 17.613281 2.269532l17.757813.914062h85.332031c117.765625-.132812 213.203125-95.570312 213.332031-213.335937 0-4.710938-3.820312-8.53125-8.53125-8.53125zm-11.09375-96.007813c-2.1875 33.621094-11.625 66.371094-27.65625 96.007813h-73.039062c.222656-1.902344.332031-3.808594.460937-5.71875 71.910157-79.65625 58.625-183.046875 58.027344-187.449219-.710937-4.605469-4.984375-7.785156-9.597656-7.148438-4.613281.632813-7.867188 4.851563-7.304688 9.476563.125.9375 11.089844 87.78125-42.003906 159.324219-4.03125-27.039063-16.671875-52.058594-36.042969-71.347656 18.933594-31.792969 30.546875-67.40625 33.996094-104.25l76.039062-13.902344c20.515626 38.328125 29.910157 81.625 27.121094 125.007812zm-89.882812-172.792968 1.410156-.851563c10.421875-6.101563 23.703125-3.957031 31.675781 5.117187 7.503907 8.761719 14.351563 18.070313 20.476563 27.84375l-65.703125 11.949219c.1875-6.785156.109375-13.585937-.292969-20.234375-.710938-9.65625 4.105469-18.882812 12.433594-23.824218zm-152.667969 131.027343c.050781.0625.117187.070313.167969.121094.050781.050781.070312.121094.121094.171875.394531.304688.816406.570312 1.261718.792969.445313.351562.925782.652343 1.433594.902343.523438.171876 1.058594.289063 1.605469.351563 1.046875.371094 2.1875.371094 3.234375 0 .523437-.0625 1.042968-.175781 1.542968-.339844.515626-.257812 1.003907-.5625 1.460938-.914062.433594-.222657.847656-.488281 1.238281-.785157.050781-.050781.066407-.121093.117188-.171874.050781-.050782.121093-.058594.171875-.117188 7.261718-7.613281 20.164062-8.304688 32.640625-6.453125-5.316407 2.417969-10.425781 5.269531-15.265625 8.535156-2.175782 1.519531-3.519532 3.964844-3.636719 6.613281-.117187 2.652344 1.007813 5.203126 3.039063 6.910157 12.414062 10.78125 23.230468 23.277343 32.117187 37.113281-7.742187-2.453125-16.015625-2.707031-23.890625-.734375-14.03125 5.066406-25.328125 15.738281-31.183594 29.457031-5.847656-13.726562-17.132812-24.40625-31.164062-29.484375-7.878906-1.964843-16.148438-1.710937-23.890625.734375 8.878906-13.839844 19.691406-26.339844 32.101562-37.128906 2.03125-1.707031 3.152344-4.257812 3.035157-6.910156-.117188-2.648438-1.460938-5.09375-3.632813-6.613282-4.859375-3.265624-9.984375-6.121093-15.316406-8.535156 12.484375-1.859375 25.394531-1.160156 32.691406 6.484375zm-62.449219 31.761719c3.53125-2.226562 7.335938-3.980469 11.324219-5.210938-10.195313 11.628907-17.742187 25.335938-22.109375 40.171876-.894531 3.71875.796875 7.578124 4.136719 9.441406 3.335937 1.867187 7.507812 1.28125 10.207031-1.425782 1.203125-.582031 3.414062-1.425781 4.265625-1.707031.855469-.28125 1.46875-.5625 1.800781-.710937 2.734375-1.230469 5.550782-2.28125 8.421875-3.136719 4.777344-1.617187 9.90625-1.882813 14.824219-.769531 13.335938 3.738281 23.40625 22.578125 27.460938 39.601562.191406.644532.457031 1.261719.792968 1.84375.089844.246094.191406.484375.308594.71875.546875.867188 1.246094 1.632813 2.0625 2.25.1875.136719.417969.207032.617188.335938.679687.441406 1.421874.785156 2.199218 1.015625.128906 0 .214844.125.34375.152343.632813.15625 1.28125.234376 1.933594.230469h.085938c.652343.003907 1.304687-.074219 1.9375-.230469.128906 0 .214843-.121093.34375-.152343.773437-.230469 1.515624-.574219 2.191406-1.015625.203125-.128906.433594-.199219.621094-.34375.820312-.613282 1.523437-1.375 2.066406-2.242188.117187-.234375.21875-.472656.308594-.71875.335937-.582031.601562-1.199218.792968-1.84375 4.054688-17.066406 14.121094-35.839844 27.460938-39.601562 4.917968-1.113282 10.046875-.847656 14.820312.769531 2.875.855469 5.6875 1.90625 8.421875 3.136719.335938.148437.984375.402344 1.800781.710937.820313.304688 3.054688 1.160157 4.269532 1.707031 2.695312 2.707032 6.867187 3.292969 10.207031 1.425782 3.339844-1.863282 5.027344-5.722656 4.136719-9.441406-4.371094-14.832032-11.917969-28.542969-22.109375-40.171876 3.972656 1.222657 7.769531 2.96875 11.289062 5.1875 31.339844 20.183594 50.445313 54.761719 50.859375 92.039063-.039062 4.683594-.382812 9.359375-1.035156 13.996094h-236.867188c-.652343-4.636719-.996093-9.3125-1.03125-13.996094.40625-37.265625 19.507813-71.835937 50.839844-92.015625zm-96.640625-156.234375c20.414063 27.683594 17.042969 66.230469-7.867187 89.949219zm-67.257812 60.628906c-7.039063-15.0625-8.324219-32.183593-3.609375-48.128906l38.160156 81.835937c-15.246094-6.640624-27.535156-18.628906-34.550781-33.707031zm6.953125 122.332031 23.042968-4.042968c3-.527344 5.496094-2.617188 6.539063-5.480469 1.042969-2.867187.480469-6.070313-1.476563-8.40625-1.957031-2.335937-5.015624-3.453125-8.015624-2.925781l-25.125 4.414062c-3.097657-22.742187 12.320312-43.867187 34.917968-47.855468l29.707032-5.207032c12.5-2.21875 25.339843 1.242188 35.027343 9.445313 9.691407 8.203125 15.222657 20.296875 15.097657 32.992187l-.308594 24.492188c-5.566406 8.558594-10.078125 17.761718-13.429688 27.40625l-19.074218 3.414062c-4.273438.839844-7.230469 4.765625-6.855469 9.109375.375 4.339844 3.960937 7.699219 8.316406 7.796875.503906-.003906 1.003906-.042968 1.5-.128906l11.25-1.996094c-2.28125 11.949219-2.695313 24.179688-1.222656 36.257813h-60.058594zm-8.371094 130.484376c-2.476562-11.230469-4.023438-22.648438-4.632812-34.132813h477.328124c-.507812 11.488281-2.03125 22.910156-4.546874 34.132813zm0 0" fill="#428dff"/><path d="m110.808594 188.035156c-.390625-2.230468-1.652344-4.210937-3.503906-5.511718-1.851563-1.300782-4.148438-1.808594-6.375-1.417969l-16.8125 2.960937c-4.359376.765625-7.410157 4.734375-7.027344 9.140625.382812 4.410157 4.070312 7.796875 8.496094 7.796875.5 0 1-.042968 1.492187-.125l16.804687-2.960937c2.226563-.394531 4.210938-1.652344 5.507813-3.507813 1.300781-1.851562 1.8125-4.144531 1.417969-6.375zm0 0" fill="#428dff"/><path d="m76.804688 384.003906c-4.710938 0-8.535157 3.820313-8.535157 8.53125 0 4.714844 3.824219 8.535156 8.535157 8.535156h34.132812c4.714844 0 8.535156-3.820312 8.535156-8.535156 0-4.710937-3.820312-8.53125-8.535156-8.53125zm0 0" fill="#428dff"/><path d="m145.070312 401.070312h264.535157c4.710937 0 8.53125-3.820312 8.53125-8.535156 0-4.710937-3.820313-8.53125-8.53125-8.53125h-264.535157c-4.710937 0-8.53125 3.820313-8.53125 8.53125 0 4.714844 3.820313 8.535156 8.53125 8.535156zm0 0" fill="#428dff"/></svg>