<svg height="512" viewBox="0 0 64 64" width="512" xmlns="http://www.w3.org/2000/svg" xmlns:xlink="http://www.w3.org/1999/xlink"><linearGradient id="New_Gradient_Swatch_1" gradientUnits="userSpaceOnUse" x1="32" x2="32" y1="-.136" y2="65.628"><stop offset="0" stop-color="#fff33b"/><stop offset=".014" stop-color="#fee72e"/><stop offset=".042" stop-color="#fed51b"/><stop offset=".07" stop-color="#fdca10"/><stop offset=".1" stop-color="#fdc70c"/><stop offset=".4" stop-color="#f3903f"/><stop offset=".8" stop-color="#ed683c"/><stop offset="1" stop-color="#e93e3a"/></linearGradient><linearGradient id="New_Gradient_Swatch_1-3" x1="16" x2="16" xlink:href="#New_Gradient_Swatch_1" y1="-.136" y2="65.628"/><linearGradient id="New_Gradient_Swatch_1-4" x1="48" x2="48" xlink:href="#New_Gradient_Swatch_1" y1="-.136" y2="65.628"/><g id="Health_care-Medical-Hand-Medical-Care" data-name="Health care-Medical-Hand-Medical-Care"><path d="m43 15h-6v-6a1 1 0 0 0 -1-1h-8a1 1 0 0 0 -1 1v6h-6a1 1 0 0 0 -1 1v8a1 1 0 0 0 1 1h6v6a1 1 0 0 0 1 1h8a1 1 0 0 0 1-1v-6h6a1 1 0 0 0 1-1v-8a1 1 0 0 0 -1-1zm-1 8h-6a1 1 0 0 0 -1 1v6h-6v-6a1 1 0 0 0 -1-1h-6v-6h6a1 1 0 0 0 1-1v-6h6v6a1 1 0 0 0 1 1h6z" fill="url(#New_Gradient_Swatch_1)"/><path d="m50 20a18 18 0 1 0 -18 18 18.021 18.021 0 0 0 18-18zm-18 16a16 16 0 1 1 16-16 16.021 16.021 0 0 1 -16 16z" fill="url(#New_Gradient_Swatch_1)"/><path d="m21.32 39.22a3.216 3.216 0 0 0 -5.14 3.85l3 4.51-8.3-3.89a5.023 5.023 0 0 1 -2.88-4.53v-6.17a3 3 0 0 0 -.88-2.13 3.146 3.146 0 0 0 -2.13-.87 3.007 3.007 0 0 0 -2.99 3v7.7a8.942 8.942 0 0 0 2.64 6.36l13.48 13.49a4.994 4.994 0 0 0 3.54 1.46h7.34a1 1 0 0 0 1-1v-10.28a3 3 0 0 0 -.7-1.92zm6.68 20.78h-6.34a3 3 0 0 1 -2.12-.88l-13.49-13.48a6.977 6.977 0 0 1 -2.05-4.95v-7.7a1 1 0 0 1 1-1 .99.99 0 0 1 1 1v6.17a7.022 7.022 0 0 0 4.03 6.34l11.55 5.41a1 1 0 0 0 1.25-1.46l-4.99-7.49a1.226 1.226 0 0 1 .15-1.54 1.234 1.234 0 0 1 1.8.08l7.98 9.58a1 1 0 0 1 .23.64z" fill="url(#New_Gradient_Swatch_1-3)"/><path d="m59.02 29.99h-.02a2.988 2.988 0 0 0 -3 3v6.17a5.023 5.023 0 0 1 -2.88 4.53l-8.3 3.89 3-4.51a3.216 3.216 0 0 0 -5.14-3.85l-7.99 9.58a3.051 3.051 0 0 0 -.69 1.92v10.28a1 1 0 0 0 1 1h7.34a4.994 4.994 0 0 0 3.54-1.46l13.48-13.49a8.942 8.942 0 0 0 2.64-6.36v-7.7a3 3 0 0 0 -2.98-3zm.98 10.7a6.977 6.977 0 0 1 -2.05 4.95l-13.49 13.48a3 3 0 0 1 -2.12.88h-6.34v-9.28a1 1 0 0 1 .23-.64l7.98-9.58a1.223 1.223 0 0 1 .88-.43 1.2 1.2 0 0 1 .92.35 1.226 1.226 0 0 1 .15 1.54l-4.99 7.49a1 1 0 0 0 1.25 1.46l11.55-5.41a7.022 7.022 0 0 0 4.03-6.34v-6.17a.99.99 0 0 1 1-1h.01a1 1 0 0 1 .99 1z" fill="url(#New_Gradient_Swatch_1-4)"/></g></svg>