<svg id="Layer_1" enable-background="new 0 0 128 128" viewBox="0 0 128 128" xmlns="http://www.w3.org/2000/svg" xmlns:xlink="http://www.w3.org/1999/xlink"><linearGradient id="SVGID_1_" gradientTransform="matrix(1 0 0 -1 0 130)" gradientUnits="userSpaceOnUse" x1="109.691" x2="18.288" y1="11.907" y2="103.31"><stop offset="0" stop-color="#593db6"/><stop offset="1" stop-color="#d86d6f"/></linearGradient><path d="m68.8 14.2c0 1-.8 1.7-1.8 1.8h-1.3v1.3c0 1-.8 1.8-1.8 1.8s-1.8-.8-1.8-1.8v-1.3h-1.1c-1 0-1.8-.8-1.8-1.8s.8-1.8 1.8-1.8h1.3v-1.3c0-1 .8-1.8 1.8-1.8s1.8.8 1.8 1.8v1.3h1.1c1 0 1.7.8 1.8 1.8zm-30.9 78.4c-1.9 1.3-3.5 3-4.9 4.8-.6.8-.4 1.9.4 2.4.8.6 1.9.4 2.4-.3 1.2-1.6 2.6-2.9 4.1-4.1.8-.6 1-1.6.4-2.4s-1.6-1-2.4-.4zm67.7 20.5v8.4c0 1-.8 1.7-1.8 1.8h-79.6c-1 0-1.7-.8-1.8-1.8v-10.3c0-19.8 17.4-29 28.9-28.9.7 0 1.3-.5 1.4-1.2-4.2-.3-11.4-1.8-20.8-7-.5-.3-.9-.9-.9-1.5v-28.9c0-3.4.4-6.9 1.2-10.2.2-.9 1.2-1.5 2.1-1.3s1.5 1.2 1.3 2.1c-.6 2.5-1 5-1.1 7.6 17-.2 29-3.9 36.5-11.4 1-1 2.2-.4 2.6.2 5.4 7.1 7.5 10.9 19.8 11.2-.3-8.7-3.3-15.7-8.6-20.5l-1.5 5.4c-.3.9-1.3 1.6-2.4 1.1-5.3-2.3-11.1-3.5-16.9-3.6-5.8.1-11.6 1.3-16.9 3.6-.9.4-2.1 0-2.4-1.1-.4-1.4-1.5-5.4-1.5-5.4-1.7 1.6-3.2 3.4-4.4 5.4-.5.8-1.6 1.1-2.4.6s-1.1-1.6-.6-2.4c1.7-2.8 3.9-5.2 6.4-7.3l-2.9-10.7c-.2-1 .3-2.2 1.7-2.2h46c1.1 0 2 1 1.7 2.2-.7 2.7-2.9 10.7-2.9 10.7 7.3 5.7 11.1 14.7 11.1 26v28.8c0 .6-.3 1.2-.9 1.5-9.3 5.3-16.5 6.7-20.8 7 .1.9 1 1.2 1.4 1.2 10.4.4 19.1 4.7 25 14.3.5.8.9 1.6 1.2 2.4.4.9 0 1.9-.8 2.3-.9.4-1.9 0-2.3-.8-.3-.7-.7-1.4-1.1-2.1-4.3-7.9-13.3-11.9-19.1-12.4l-19.4 17.6v16.2h42v-6.6c0-1 .8-1.8 1.8-1.8s1.7.9 1.7 1.8zm-20.9-104.8h-41.4l4.2 15.7c5.3-2 10.8-3.1 16.5-3.1 5.6.1 11.2 1.1 16.5 3.1zm-31.5 77.1 10.8 9.8 10.8-9.8c-1.9-.7-3.1-2.5-3.1-4.6v-3.2c-5 1.7-10.5 1.7-15.5 0v3.2c0 2-1.2 3.8-3 4.6zm35.6-40.3v9c0 9.3-5.2 17.8-13.5 22v1.4c3.8-.3 10-1.6 18.2-6.1v-26c-1.8 0-3.3-.1-4.7-.3zm-46-.1v9.1c0 11.7 9.5 21.3 21.3 21.3s21.3-9.5 21.3-21.3v-9.6c-7.4-1.3-11.9-8.6-13.2-10.2-7 6-16.7 9.5-29.4 10.7zm-8.2 26.5c8.2 4.5 14.4 5.7 18.2 6.1v-1.4c-8.3-4.2-13.5-12.7-13.5-22v-8.9c-1.5.1-3.1.1-4.7.1zm-8.7 48.3h30.6v-17c0-.5.2-1 .6-1.3l4.2-3.8-12.8-11.8c-12.9 1.4-22.6 12.3-22.6 25.2zm75.5-14.3c.1.6.3 1.3.4 1.9.1.9.9 1.5 1.7 1.5h.3c1-.1 1.6-1 1.5-2-.1-.7-.2-1.5-.4-2.2-.2-.9-1.1-1.5-2.1-1.3s-1.6 1.1-1.4 2.1zm-23.8-2.5c-1 0-1.8.8-1.8 1.8s.8 1.8 1.8 1.8h9c1 0 1.8-.8 1.8-1.8s-.8-1.8-1.8-1.8z" fill="url(#SVGID_1_)"/></svg>